<?xml version="1.0"?>
<svg width="456" height="456" xmlns="http://www.w3.org/2000/svg" xmlns:svg="http://www.w3.org/2000/svg" preserveAspectRatio="xMidYMid meet" version="1.0">
 <g class="layer">
  <title>Layer 1</title>
  <g fill="#ffffff" id="svg_1" transform="matrix(0.0372516 0 0 -0.0372516 220.63 291.668)">
   <path d="m-1095.31,5403.55c-16,-7 -44,-29 -62,-47c-67,-71 -63,-2 -63,-1137l0,-1028l52,48c68,63 119,78 260,78l108,0l-2,978c-3,969 -3,977 -24,1017c-11,22 -40,53 -63,70c-35,24 -53,30 -109,32c-42,2 -78,-2 -97,-11z" id="svg_2"/>
   <path d="m189.69,3487.55l0,-170l398,0c219,0 401,2 403,4c2,2 3,79 1,170l-3,166l-399,0l-400,0l0,-170z" id="svg_3"/>
   <path d="m-1040.31,3278.55c-74,-23 -127,-71 -161,-146c-14,-30 -19,-65 -19,-137l0,-98l-115,0c-114,0 -115,0 -150,-31c-19,-17 -40,-47 -46,-67c-7,-25 -9,-201 -7,-537c3,-500 3,-500 26,-536c34,-55 73,-69 191,-69l101,0l0,-1338c0,-1457 -3,-1388 56,-1504c36,-70 126,-162 199,-203c121,-68 87,-66 1061,-63l879,3l60,24c142,57 240,158 303,315c16,37 17,163 22,1401l5,1360l107,5c120,6 149,19 180,81c16,31 18,78 18,542c0,489 -1,509 -20,547c-30,58 -61,70 -185,70l-105,0l0,108c0,120 -14,165 -68,218c-68,69 17,64 -1204,63c-606,0 -1114,-4 -1128,-8zm1823,-466c113,-29 206,-94 270,-187c104,-151 104,-366 3,-527c-65,-102 -186,-187 -300,-211c-36,-7 -264,-10 -722,-8l-669,3l-77,38c-177,86 -288,257 -288,441c0,215 137,395 341,450c82,22 1358,23 1442,1zm42,-1419c67,-28 75,-57 75,-267c0,-177 -1,-188 -23,-220c-48,-72 -9,-69 -815,-69c-795,0 -768,-2 -813,61c-23,33 -24,39 -24,229c0,219 4,234 75,264c52,22 1473,23 1525,2zm103,-1086c3,-24 -2,-38 -14,-47c-23,-17 -1654,-19 -1685,-3c-19,11 -28,68 -12,83c3,4 389,6 857,5l851,-3l3,-35zm0,-360c3,-24 -2,-38 -14,-47c-14,-10 -181,-13 -833,-12c-449,1 -827,4 -841,8c-27,7 -35,29 -26,67l6,24l853,-2l852,-3l3,-35zm0,-356c3,-36 0,-42 -20,-48c-42,-11 -1658,-7 -1679,4c-19,11 -28,68 -12,83c3,4 389,6 857,5l851,-3l3,-41zm0,-348c2,-24 -2,-42 -10,-47c-7,-5 -390,-9 -851,-9l-837,0l-12,25c-8,19 -8,31 0,50l12,25l847,-2l848,-3l3,-39z" id="svg_4"/>
   <path d="m-495.31,2535.55c-133,-47 -157,-255 -37,-332c80,-52 169,-42 238,28c33,33 44,51 49,90c23,150 -109,263 -250,214z" id="svg_5"/>
   <path d="m485.69,2537.55c-60,-19 -126,-114 -126,-179c0,-72 66,-163 130,-182c77,-23 163,7 216,77c25,33 29,46 29,104c0,112 -59,177 -169,186c-28,2 -64,-1 -80,-6z" id="svg_6"/>
   <path d="m-623.31,1229.55c-21,-23 -24,-151 -5,-170c9,-9 177,-12 694,-12c375,0 689,3 698,6c23,9 23,156 0,178c-14,14 -90,16 -693,16c-644,0 -679,-1 -694,-18z" id="svg_7"/>
  </g>
 </g>
</svg>